<svg width="30" height="30" viewBox="0 0 30 30" fill="none" xmlns="http://www.w3.org/2000/svg">
<g clip-path="url(#clip0_169_3704)">
<g clip-path="url(#clip1_169_3704)">
<path d="M14.9929 28.0913C12.5344 28.0747 10.0877 27.9491 7.69562 27.3113C4.23663 26.3891 2.09107 24.1463 1.09059 20.7466C0.201321 17.6769 -0.150786 14.4767 0.0498153 11.2871C0.15413 9.46636 0.576131 7.70723 1.64299 6.17333C2.93033 4.31463 4.79614 3.31178 6.918 2.81392C8.52057 2.44332 10.1481 2.19055 11.7876 2.05763C13.5171 1.90478 15.2549 1.86914 16.9891 1.95095C19.4856 2.08134 21.9844 2.3042 24.3623 3.20984C27.2807 4.31937 29.1513 6.35114 29.6634 9.44028C30.368 13.6134 29.9591 17.8986 28.478 21.8632C27.3447 24.9453 25.0048 26.6902 21.8658 27.4227C19.6094 27.917 17.3023 28.1414 14.9929 28.0913ZM28.2125 12.7096C28.165 12.2165 28.1105 11.3227 27.992 10.436C27.5439 7.1169 25.7705 4.84094 22.5534 3.76698C20.8441 3.22736 19.0678 2.92971 17.276 2.88267C14.1703 2.74516 11.0811 2.74516 8.06072 3.56546C5.60932 4.23402 3.67476 5.56641 2.65294 7.9941C2.0928 9.37755 1.80695 10.8567 1.81131 12.3492C1.77338 15.1349 2.03654 17.8922 2.84498 20.5711C3.7933 23.6532 5.71364 25.7703 8.92132 26.5621C12.6648 27.4867 16.4344 27.4559 20.2087 26.7731C23.9261 26.0998 26.2115 23.8808 27.2191 20.2724C27.8782 17.9277 28.1271 15.5332 28.2125 12.7096Z" fill="#717271"/>
<path d="M14.9908 4.58029C16.8234 4.53524 18.6442 4.63719 20.4175 5.14691C23.8646 6.14027 25.7755 8.62249 25.9912 12.2048C26.1504 14.5297 25.9099 16.8648 25.28 19.1085C24.2985 22.5319 22.0913 24.6301 18.5304 25.2109C15.8537 25.6471 13.1795 25.6851 10.5337 25.0141C7.3497 24.2199 5.52182 22.0578 4.66359 18.9757C3.99591 16.5509 3.80192 14.0202 4.09223 11.522C4.44785 8.25976 6.43932 5.98617 9.61618 5.12083C11.372 4.68096 13.1825 4.49888 14.9908 4.58029ZM20.2705 10.3887H20.3891C20.3891 11.2138 20.363 12.0483 20.3891 12.8615C20.4352 14.3921 20.0666 15.9068 19.3222 17.2451C18.1368 19.4689 16.938 21.6903 15.7257 23.9094C15.4507 24.4191 15.5384 24.6206 16.1074 24.5993C16.8224 24.5685 17.5349 24.4949 18.2411 24.3788C20.7589 23.9544 22.7077 22.6908 23.7319 20.3081C25.0892 17.2733 25.3816 13.869 24.5616 10.6471C24.3515 9.75221 23.9372 8.91802 23.3511 8.20979C22.765 7.50156 22.0231 6.9385 21.1833 6.56464C20.427 6.20665 20.2705 6.29674 20.2705 7.12178C20.2729 8.20523 20.2705 9.29579 20.2705 10.3887ZM9.60195 7.85909H9.7039V6.99849C9.7039 6.36075 9.54505 6.23984 8.97606 6.49115C7.01779 7.35886 5.82291 8.86431 5.3369 10.9293C4.72286 13.5371 4.94335 16.1308 5.6451 18.6794C6.87317 23.1341 9.92438 24.4783 13.9097 24.6064C14.4052 24.623 14.5166 24.393 14.2795 23.9568C13.1653 21.8918 12.0557 19.8268 10.9249 17.7714C10.0548 16.1877 9.52134 14.5376 9.59247 12.6955C9.65411 11.0834 9.60432 9.46886 9.60432 7.85909H9.60195ZM15.0548 5.53572L11.5579 5.80362C11.0695 5.83918 10.9486 6.05729 11.1287 6.51485C12.2809 9.44752 13.4189 12.3849 14.5759 15.3152C14.6375 15.4693 14.8461 15.6898 14.9576 15.6732C15.055 15.6496 15.146 15.6048 15.2243 15.5422C15.3025 15.4795 15.366 15.4004 15.4104 15.3105C15.7067 14.6419 15.9628 13.952 16.2307 13.2692C17.0984 11.0565 17.9677 8.83823 18.8386 6.61443C19.0756 5.99802 19.0164 5.87237 18.381 5.80362C17.2738 5.6993 16.1856 5.62344 15.0571 5.53572H15.0548Z" fill="#717271"/>
</g>
</g>
<defs>
<clipPath id="clip0_169_3704">
<rect width="30" height="30" fill="white"/>
</clipPath>
<clipPath id="clip1_169_3704">
<rect width="30" height="26.1878" fill="white" transform="translate(0 1.90601)"/>
</clipPath>
</defs>
</svg>
