<svg width="40" height="37" viewBox="0 0 40 37" fill="none" xmlns="http://www.w3.org/2000/svg">
<g clip-path="url(#clip0_59_2566)">
<path d="M0 36.467C0.373946 35.6025 0.808359 34.7655 1.3 33.962C1.47578 33.7867 1.68591 33.6497 1.91721 33.5595C2.1485 33.4693 2.39595 33.428 2.644 33.438C6.926 33.415 11.208 33.438 15.468 33.438C16.197 33.438 16.903 33.415 17.632 33.37C18.4782 33.3954 19.3195 33.2328 20.0954 32.8941C20.8712 32.5553 21.5623 32.0488 22.119 31.411C22.2516 31.8701 22.2912 32.3511 22.2354 32.8257C22.1796 33.3003 22.0295 33.759 21.7941 34.1748C21.5586 34.5906 21.2424 34.9552 20.8641 35.2472C20.4858 35.5392 20.0529 35.7526 19.591 35.875C18.999 36.075 18.384 36.262 17.769 36.444C11.845 36.4667 5.922 36.4743 0 36.467Z" fill="#717271"/>
<path d="M21.1822 7.72198C21.4102 7.97298 21.5012 8.04096 21.5692 8.13196C22.212 8.73939 22.5874 9.5771 22.6131 10.4611C22.6388 11.3451 22.3126 12.2033 21.7062 12.847C19.8612 15.398 18.3352 18.154 16.6492 20.819C15.9345 21.958 15.6819 23.3269 15.9432 24.646C15.9892 24.919 16.2852 25.329 16.4672 25.329C18.5852 25.42 20.6582 25.306 22.0932 23.347C21.7108 22.4503 21.1177 21.659 20.3642 21.0405C19.6108 20.422 18.7192 19.9944 17.7652 19.794C18.2973 19.1525 19.0572 18.742 19.8854 18.6488C20.7136 18.5555 21.5458 18.7868 22.2072 19.294C23.4873 20.2958 24.5818 21.5142 25.4412 22.894C27.2182 25.855 28.7212 28.953 30.3412 32.005C30.4092 32.142 30.4322 32.278 30.5462 32.574C29.5058 32.6165 28.4638 32.6011 27.4252 32.528C27.0832 32.482 26.6962 32.028 26.5142 31.685C25.2612 29.339 24.0542 26.97 22.8472 24.624C22.7562 24.442 22.6422 24.26 22.3692 23.781C22.1642 27.357 19.7952 28.268 17.1302 28.381C12.9392 28.563 8.73018 28.427 4.28418 28.427C4.80818 27.47 5.24118 26.559 5.78418 25.717C5.94318 25.489 6.44518 25.417 6.78418 25.417C9.29018 25.394 11.7952 25.394 14.3012 25.394C14.6652 25.394 15.0302 25.371 15.6902 25.326C14.4372 24.392 13.4122 23.504 13.6172 22.069C13.7232 20.7957 14.0622 19.5528 14.6172 18.402C16.6962 14.829 18.9512 11.344 21.1822 7.72198Z" fill="#717271"/>
<path d="M24.6221 15.898C25.1245 15.3327 25.8055 14.9567 26.5515 14.8324C27.2975 14.7081 28.0635 14.8431 28.7221 15.215C29.9415 15.9694 30.989 16.9714 31.7971 18.156C34.5531 22.78 37.1271 27.517 39.7461 32.21C39.7691 32.256 39.7461 32.347 39.7231 32.552C38.7587 32.5936 37.7927 32.5782 36.8301 32.506C36.5111 32.483 36.1691 32.05 35.9871 31.732C33.8871 28.042 31.8191 24.332 29.7231 20.639C28.5621 18.54 27.2411 16.513 24.6221 15.898Z" fill="#717271"/>
<path d="M9.72622 19.68C8.93055 19.4738 8.24602 18.9668 7.81695 18.2657C7.38787 17.5646 7.24778 16.7243 7.42621 15.922C7.71856 14.4419 8.26569 13.0239 9.04322 11.731C11.3662 7.94999 13.8492 4.28299 16.2862 0.592987C16.4002 0.410987 16.5862 0.273977 16.8102 0.000976562C17.3093 0.784057 17.7582 1.59804 18.1542 2.43799C18.2418 2.8971 18.1436 3.3722 17.8812 3.75897C15.8082 6.97097 13.6442 10.137 11.6172 13.371C10.1582 15.671 9.36122 16.195 9.72622 19.68Z" fill="#717271"/>
<path d="M35.26 32.617C34.235 32.6589 33.2084 32.6436 32.1851 32.571C31.9865 32.5014 31.8037 32.393 31.6474 32.2523C31.491 32.1115 31.3641 31.9411 31.274 31.751C29.543 28.631 27.88 25.487 26.149 22.367C25.01 20.34 23.8491 18.29 21.2061 17.812C21.6841 17.2867 22.3151 16.9249 23.0099 16.7778C23.7047 16.6307 24.4281 16.7056 25.078 16.992C26.604 17.7144 27.8461 18.9244 28.6081 20.431C30.8401 24.303 33.0081 28.221 35.1681 32.139C35.2371 32.252 35.214 32.37 35.26 32.617Z" fill="#717271"/>
<path d="M22.1632 27.561C22.5272 29.634 21.7532 31.183 19.8852 31.843C18.7076 32.2698 17.4701 32.5081 16.2182 32.549C11.7312 32.64 7.26719 32.595 2.77919 32.595C2.55005 32.577 2.32205 32.5466 2.09619 32.504C2.49881 31.6148 2.96294 30.7547 3.4852 29.93C3.81143 29.6444 4.23619 29.4973 4.66919 29.52C8.19919 29.497 11.7302 29.52 15.2602 29.497C17.7212 29.52 20.2492 29.748 22.1632 27.561Z" fill="#717271"/>
<path d="M13.0519 22.504C11.2749 21.889 10.2959 20.636 10.6599 18.904C10.9796 17.2782 11.5643 15.716 12.3909 14.28C14.4179 10.863 16.6499 7.53797 18.7909 4.18997C18.8933 4.03759 19.0157 3.89969 19.1549 3.77997C19.2689 3.87097 19.3369 3.89398 19.3599 3.96198C20.9539 6.48998 20.9539 6.48998 19.3599 9.01898C17.9249 11.297 16.4669 13.552 15.0099 15.829C13.7159 17.857 12.2539 19.839 13.0519 22.504Z" fill="#717271"/>
</g>
<defs>
<clipPath id="clip0_59_2566">
<rect width="39.756" height="36.466" fill="white"/>
</clipPath>
</defs>
</svg>
