<svg width="373" height="97" viewBox="0 0 373 97" fill="none" xmlns="http://www.w3.org/2000/svg">
<g clip-path="url(#clip0_59_2634)">
<path d="M19.8485 0.143263C24.7472 -0.0959146 31.0255 0.0319348 37.2558 0.0319348H51.7138C60.9563 0.0319348 67.7738 6.28272 69.9775 10.2692C71.7371 13.3946 73.3065 16.0899 73.4491 22.6276C73.465 23.5685 73.4967 25.7849 73.4491 26.9011C73.3857 28.5435 72.1172 29.8825 70.4843 29.8825H55.0116C53.5373 29.8825 52.6329 29.2609 52.078 27.4431C51.7926 26.4702 50.8414 24.2377 48.2099 22.4519C47.0209 21.6387 45.4041 21.0485 43.5019 20.9528C41.6787 20.8731 39.7282 20.9528 37.2392 20.9528C35.5109 20.9528 30.8828 20.9689 29.123 21.0964C26.6657 21.2558 21.5448 24.5733 21.5448 29.1657C21.545 35.783 26.9034 36.7872 28.2509 37.0105C29.5666 37.2337 31.0725 37.3458 32.7528 37.4733C34.3699 37.585 39.3164 38.1271 44.5956 38.6374C49.8431 39.1477 55.4236 39.594 58.4833 40.2956C63.3027 41.3799 66.2676 43.7239 68.3603 45.6374C70.7065 47.806 72.5138 50.485 73.7187 53.5466C74.3052 55.0455 74.8437 56.6568 75.1132 58.5544C75.3985 60.5954 75.3993 62.9554 75.3993 65.698C75.3993 68.3131 75.3039 70.5618 75.3515 73.4958C75.4149 76.9559 75.0813 79.3157 74.1777 81.9626C70.7692 91.9767 61.6059 96.8409 53.5048 96.9685C48.5429 97.0482 44.0565 96.9685 37.2558 96.9685C31.1999 96.9685 27.5057 96.9678 21.6718 96.904C17.1982 96.8592 14.0901 95.6509 10.9628 93.8972L10.3359 93.5554C7.02269 91.6259 4.02605 88.2617 2.13957 84.2116C-0.0957626 79.4119 0.0155408 75.425 0.0155417 69.0944C0.0155417 68.3131 0.253868 67.5793 0.792885 67.0212C1.33187 66.4633 2.04549 66.1442 2.82218 66.1442H17.2323C18.6274 66.1442 19.7058 67.213 19.9911 68.6003C20.4508 70.7528 20.8474 71.9804 23.4628 74.1169C25.8881 76.11 28.5672 76.0788 30.0575 76.0788C32.4038 76.0469 42.8361 76.222 44.8495 76.0466C45.88 75.9669 47.782 76.0782 50.2548 74.0534C52.2523 72.411 53.7747 70.0989 53.9491 67.3562C54.076 65.2673 53.8222 64.9001 53.5527 63.6882C53.2356 62.2853 52.5065 61.2332 51.3495 60.5476C50.2873 59.9097 48.844 59.5111 46.9257 59.3356C45.1653 59.1602 37.2237 58.4267 33.6093 58.028C29.8996 57.6134 23.4467 57.023 18.7382 56.5446C14.3785 56.098 6.87986 53.7063 2.39347 45.1755C0.586178 41.7471 0.0946433 38.7807 0.0946433 28.5114C0.0946302 21.8142 -0.744904 18.5926 2.48917 12.1823C6.80139 3.60372 15.0768 0.382449 19.8485 0.143263ZM141.412 0.654005C142.014 0.654005 142.57 1.02043 142.792 1.59443C142.792 1.59443 166.477 69.5881 174.911 92.0564C175.688 94.1452 174.134 96.394 171.931 96.3942H155.205C154.587 96.3942 154.031 96.0113 153.809 95.4372L146.422 74.7233H110.625L103.332 95.405C103.126 95.9949 102.556 96.3942 101.937 96.3942L85.2597 96.4099C83.0243 96.4099 81.502 94.1137 82.3739 92.0407L114.287 1.57881C114.525 1.02083 115.064 0.654178 115.666 0.654005H141.412ZM197.867 1.06807C199.928 -0.541968 202.924 0.941366 202.924 3.55635V94.9108C202.924 95.74 202.258 96.4099 201.434 96.4099H182.996C182.172 96.4098 181.506 95.74 181.506 94.9108V15.3239C181.506 14.3992 181.934 13.5219 182.663 12.948L197.867 1.06807ZM265.576 0.66963C271.394 0.653684 275.913 2.51962 279.29 5.071C282.698 7.65425 285.456 11.1627 287.184 16.1218C288.976 21.2723 288.263 27.7467 288.263 32.8972C288.263 38.4623 288.786 45.5743 287.09 50.1189C285.219 55.1416 283.887 56.7837 279.987 60.3396C277.514 62.6038 275.961 63.3537 271.142 64.6931C266.433 66.0166 257.998 65.2517 250.309 65.2517H237.103V94.9108C237.103 95.74 236.438 96.4099 235.613 96.4099H217.16C216.336 96.4099 215.67 95.74 215.67 94.9108V3.81123C215.67 2.07322 217.081 0.669808 218.809 0.66963H265.576ZM339.247 0.606154C339.849 0.606154 340.404 0.972689 340.626 1.54658C340.626 1.54658 364.327 69.6046 372.777 92.1364C373.554 94.2253 371.984 96.3942 369.765 96.3942H353.04C352.422 96.3942 351.866 96.0113 351.644 95.4372L344.257 74.7233H308.46L301.103 95.405C300.897 95.9949 300.327 96.3941 299.709 96.3942L283.062 96.4099C280.827 96.4099 279.337 93.9861 280.145 91.8972C288.782 69.4544 312.102 1.58787 312.122 1.53096C312.36 0.972872 312.898 0.606189 313.501 0.606154H339.247ZM118.251 53.2917H138.765L128.523 22.0378L118.251 53.2917ZM316.117 53.2917H336.631L326.39 22.0378L316.117 53.2917ZM262.628 22.3728C261.391 21.8944 258.617 22.0378 257.127 22.0378H237.088V43.8034C237.088 43.8034 246.965 43.7403 250.294 43.7722C251.863 43.7722 256.381 43.8034 258.918 43.8034C260.678 43.8034 262.343 44.0274 264.102 42.7517C265.355 41.8427 266.765 40.4866 266.86 38.1267C266.971 35.4162 266.956 34.8736 266.892 32.3542C266.877 31.4931 266.892 30.2334 266.892 29.2927C266.892 27.6504 266.813 26.4065 265.957 25.1149C265.148 23.8713 264.467 23.0903 262.628 22.3728Z" fill="url(#paint0_linear_59_2634)"/>
</g>
<defs>
<linearGradient id="paint0_linear_59_2634" x1="27.6524" y1="0.144069" x2="27.6524" y2="96.9904" gradientUnits="userSpaceOnUse">
<stop stop-color="#F66C20"/>
<stop offset="1" stop-color="#F66C20" stop-opacity="0"/>
</linearGradient>
<clipPath id="clip0_59_2634">
<rect width="373" height="97" fill="white"/>
</clipPath>
</defs>
</svg>
