<svg width="40" height="40" viewBox="0 0 40 40" fill="none" xmlns="http://www.w3.org/2000/svg">
<g clip-path="url(#clip0_59_2577)">
<path d="M9.56627 37.9365C8.72327 36.3875 7.88027 34.8165 6.94727 33.1305C8.04027 32.4925 9.11126 31.8305 10.2273 31.1945C13.2113 29.4635 16.1953 27.7325 19.2013 26.0465C19.3801 25.9372 19.5791 25.8647 19.7864 25.8335C19.9937 25.8022 20.2051 25.8128 20.4083 25.8645C24.5993 28.2335 28.7673 30.6475 33.0723 33.1535C32.1383 34.7935 31.2043 36.3655 30.2933 37.9595H30.0653C26.9223 36.1375 23.8013 34.2925 20.6353 32.4705C20.4659 32.3782 20.2791 32.3225 20.0869 32.3068C19.8947 32.2912 19.7013 32.3159 19.5193 32.3795C16.3303 34.2015 13.1873 36.0695 10.0193 37.9375L9.56627 37.9365Z" fill="#717271"/>
<path d="M22.8228 11.0865C22.8228 13.3645 22.8688 15.6415 22.7998 17.9195C22.7583 18.2716 22.8311 18.6276 23.0073 18.9352C23.1836 19.2427 23.4541 19.4854 23.7788 19.6275C27.7418 21.8595 31.6598 24.1825 35.6228 26.4155C35.9873 26.5635 36.2901 26.8319 36.4808 27.1759C36.6715 27.52 36.7386 27.919 36.6708 28.3065C36.6252 28.6848 36.6252 29.0672 36.6708 29.4455C36.7388 30.1065 36.3978 30.4025 35.8968 30.7895C34.4848 31.8825 33.2778 31.7895 31.7518 30.8355C28.2668 28.6485 24.6228 26.6905 21.0688 24.5715C20.7734 24.3516 20.4159 24.2309 20.0476 24.2268C19.6793 24.2226 19.3191 24.3353 19.0188 24.5485C15.1008 26.8715 11.1378 29.1035 7.21883 31.4045C6.94721 31.6287 6.60707 31.7533 6.25489 31.7575C5.90271 31.7617 5.55969 31.6452 5.28283 31.4275C4.91883 31.1545 4.43984 31.0175 4.12084 30.7215C3.78333 30.4249 3.53824 30.0375 3.41483 29.6055C3.05083 27.8055 3.71484 26.6905 5.44184 25.7785C9.08584 23.9105 12.5488 21.7245 16.1248 19.7195C16.4785 19.5603 16.7738 19.2948 16.9696 18.9601C17.1655 18.6253 17.2523 18.2379 17.2178 17.8515C17.1718 13.3415 17.2178 8.83153 17.1718 4.32153C17.1567 3.97896 17.2385 3.63906 17.4078 3.34085C17.5771 3.04263 17.827 2.79818 18.1288 2.63552C19.7008 1.49652 21.0438 2.06652 22.3658 2.95452C22.5162 3.09794 22.6345 3.27148 22.713 3.4638C22.7916 3.65612 22.8287 3.86288 22.8218 4.07052C22.8448 6.38652 22.8228 8.73554 22.8228 11.0865Z" fill="#717271"/>
<path d="M10.341 3.17749H16.126V4.90851C16.126 9.07651 16.149 13.2455 16.103 17.4085C16.1011 17.6511 16.0472 17.8905 15.9451 18.1106C15.843 18.3307 15.695 18.5264 15.511 18.6845C11.411 21.1215 7.26596 23.4905 3.11996 25.8595C3.05196 25.9055 2.98296 25.8825 2.80096 25.9055C1.88996 24.3335 0.978977 22.7395 0.000976562 21.0535C2.48398 19.6185 4.80698 18.0015 7.33498 16.8625C9.79498 15.7465 10.729 14.2435 10.41 11.5555C10.2578 9.17435 10.2425 6.78642 10.364 4.4035C10.341 4.0425 10.341 3.63349 10.341 3.17749Z" fill="#717271"/>
<path d="M37.1499 26.0685C32.8679 23.5855 28.7219 21.2164 24.5999 18.7794C24.4209 18.6717 24.2672 18.5265 24.1493 18.354C24.0314 18.1814 23.9522 17.9854 23.9169 17.7794C23.8709 13.0414 23.8939 8.27943 23.8939 3.54343C23.9174 3.418 23.9556 3.29583 24.0079 3.17944H29.5659C29.5889 3.58944 29.6339 3.97944 29.6339 4.38644C29.6339 7.64344 29.6569 10.9235 29.6109 14.1805C29.5834 14.4778 29.6499 14.7763 29.8012 15.0338C29.9524 15.2913 30.1808 15.4948 30.4539 15.6154C33.3009 17.2094 36.1259 18.8494 38.9539 20.4894C39.2729 20.6714 39.5919 20.8765 40.0019 21.1505C39.0409 22.7885 38.1289 24.3835 37.1499 26.0685Z" fill="#717271"/>
</g>
<defs>
<clipPath id="clip0_59_2577">
<rect width="40" height="40" fill="white"/>
</clipPath>
</defs>
</svg>
