<svg width="24" height="24" viewBox="0 0 24 24" fill="none" xmlns="http://www.w3.org/2000/svg">
<g clip-path="url(#clip0_59_2659)">
<path d="M4.57996 18.1699H4.25C2.73 18.1699 1.5 16.9399 1.5 15.4199V12.9199C1.5 11.3999 2.73 10.1699 4.25 10.1699H4.57996C6.09996 10.1699 7.32996 11.3999 7.32996 12.9199V15.4199C7.32996 16.9299 6.09996 18.1699 4.57996 18.1699ZM4.25 11.6699C3.56 11.6699 3 12.2299 3 12.9199V15.4199C3 16.1099 3.56 16.6699 4.25 16.6699H4.57996C5.26996 16.6699 5.82996 16.1099 5.82996 15.4199V12.9199C5.82996 12.2299 5.26996 11.6699 4.57996 11.6699H4.25Z" fill="#9CA3AF"/>
<path d="M19.5798 11.67C19.1698 11.67 18.8298 11.33 18.8298 10.92V9.84001C18.8298 6.07001 15.7699 3.01001 11.9999 3.01001C8.22988 3.01001 5.16992 6.07001 5.16992 9.84001V10.92C5.16992 11.33 4.82992 11.67 4.41992 11.67C4.00992 11.67 3.66992 11.33 3.66992 10.92V9.84001C3.66992 5.25001 7.40988 1.51001 11.9999 1.51001C16.5899 1.51001 20.3298 5.25001 20.3298 9.84001V10.92C20.3298 11.33 19.9998 11.67 19.5798 11.67Z" fill="#9CA3AF"/>
<path d="M14.1602 22.5H13.0801C12.6701 22.5 12.3301 22.16 12.3301 21.75C12.3301 21.34 12.6701 21 13.0801 21H14.1602C16.3702 21 18.3001 19.43 18.7301 17.26C18.8101 16.85 19.2001 16.59 19.6101 16.67C20.0201 16.75 20.2801 17.15 20.2001 17.55C19.6301 20.42 17.0902 22.5 14.1602 22.5Z" fill="#9CA3AF"/>
<path d="M19.7499 18.1699H19.4199C17.8999 18.1699 16.6699 16.9399 16.6699 15.4199V12.9199C16.6699 11.3999 17.8999 10.1699 19.4199 10.1699H19.7499C21.2699 10.1699 22.4999 11.3999 22.4999 12.9199V15.4199C22.4999 16.9299 21.2699 18.1699 19.7499 18.1699ZM19.4199 11.6699C18.7299 11.6699 18.1699 12.2299 18.1699 12.9199V15.4199C18.1699 16.1099 18.7299 16.6699 19.4199 16.6699H19.7499C20.4399 16.6699 20.9999 16.1099 20.9999 15.4199V12.9199C20.9999 12.2299 20.4399 11.6699 19.7499 11.6699H19.4199Z" fill="#9CA3AF"/>
</g>
<defs>
<clipPath id="clip0_59_2659">
<rect width="24" height="24" fill="white"/>
</clipPath>
</defs>
</svg>
