<svg width="20" height="20" viewBox="0 0 20 20" fill="none" xmlns="http://www.w3.org/2000/svg">
<path d="M4.67484 14.325C2.3665 14.325 1.0415 13 1.0415 10.6917V4.67501C1.0415 2.36667 2.3665 1.04167 4.67484 1.04167H9.4915C11.7998 1.04167 13.1248 2.36667 13.1248 4.67501V5.69167C13.1248 6.03334 12.8415 6.31667 12.4998 6.31667C12.1582 6.31667 11.8748 6.03334 11.8748 5.69167V4.67501C11.8748 3.06667 11.0915 2.29167 9.4915 2.29167H4.67484C3.0665 2.29167 2.2915 3.07501 2.2915 4.67501V10.6917C2.2915 12.3 3.07484 13.075 4.67484 13.075C5.0165 13.075 5.29984 13.3583 5.29984 13.7C5.29984 14.0417 5.02484 14.325 4.67484 14.325Z" fill="#9CA3AF"/>
<path d="M17.0665 12.8167C16.8665 12.75 16.6081 12.7167 16.2915 12.7167H9.4498C9.13313 12.7167 8.8748 12.75 8.6748 12.8167L9.18314 10.025C9.35814 9.09166 9.6498 8.33333 10.9915 8.33333H14.7498C16.0915 8.33333 16.3831 9.09166 16.5581 10.025L17.0665 12.8167Z" fill="#9CA3AF"/>
<path d="M9.99984 11.7333H8.0415C7.69984 11.7333 7.4165 11.45 7.4165 11.1083C7.4165 10.7667 7.69984 10.4833 8.0415 10.4833H9.99984C10.3415 10.4833 10.6248 10.7667 10.6248 11.1083C10.6248 11.45 10.3415 11.7333 9.99984 11.7333Z" fill="#9CA3AF"/>
<path d="M17.7002 11.7333H15.8335C15.4918 11.7333 15.2085 11.45 15.2085 11.1083C15.2085 10.7667 15.4918 10.4833 15.8335 10.4833H17.7002C18.0418 10.4833 18.3252 10.7667 18.3252 11.1083C18.3252 11.45 18.0418 11.7333 17.7002 11.7333Z" fill="#9CA3AF"/>
<path d="M17.9252 14.175C17.8668 13.5583 17.7668 13.025 17.0668 12.8167C16.8668 12.75 16.6085 12.7167 16.2918 12.7167H9.45017C9.1335 12.7167 8.87517 12.75 8.67517 12.8167C7.97517 13.025 7.87517 13.5583 7.81684 14.175L7.51684 17.4417C7.45851 18.075 7.95851 18.6167 8.60018 18.6167H9.6085C10.1918 18.6167 10.2668 18.3667 10.3752 18.0583L10.4752 17.7417C10.6168 17.3333 10.7252 17 11.5002 17H14.2418C15.0168 17 15.1085 17.3 15.2585 17.7417L15.3668 18.0583C15.4752 18.3667 15.5502 18.6167 16.1335 18.6167H17.1418C17.7835 18.6167 18.2835 18.075 18.2252 17.4417L17.9252 14.175ZM11.2585 15.4833H9.65017C9.3085 15.4833 9.02517 15.2 9.02517 14.8583C9.02517 14.5167 9.3085 14.2333 9.65017 14.2333H11.2585C11.6002 14.2333 11.8835 14.5167 11.8835 14.8583C11.8835 15.2 11.6085 15.4833 11.2585 15.4833ZM16.0918 15.4833H14.4835C14.1418 15.4833 13.8585 15.2 13.8585 14.8583C13.8585 14.5167 14.1418 14.2333 14.4835 14.2333H16.0918C16.4335 14.2333 16.7168 14.5167 16.7168 14.8583C16.7168 15.2 16.4335 15.4833 16.0918 15.4833Z" fill="#9CA3AF"/>
<path d="M9.16667 6.45833H5C4.65833 6.45833 4.375 6.17499 4.375 5.83333C4.375 5.49166 4.65833 5.20833 5 5.20833H9.16667C9.50833 5.20833 9.79167 5.49166 9.79167 5.83333C9.79167 6.17499 9.50833 6.45833 9.16667 6.45833Z" fill="#9CA3AF"/>
<path d="M5.83333 9.79167H5C4.65833 9.79167 4.375 9.50834 4.375 9.16667C4.375 8.82501 4.65833 8.54167 5 8.54167H5.83333C6.175 8.54167 6.45833 8.82501 6.45833 9.16667C6.45833 9.50834 6.175 9.79167 5.83333 9.79167Z" fill="#9CA3AF"/>
</svg>
