<svg width="302" height="182" viewBox="0 0 302 182" fill="none" xmlns="http://www.w3.org/2000/svg">
<path d="M73.4881 4.82298L69.5036 6.78642C68.7954 7.13703 68.344 7.86164 68.344 8.64857L68.3596 17.3204L41.1449 3.70101V-26.7011L48.8805 -22.8132C49.5887 -22.4548 50.4292 -22.5327 51.0595 -23.0158L54.5694 -25.6727C55.1919 -26.1402 55.0908 -27.0985 54.3903 -27.4335L38.5923 -34.9756C38.0242 -35.2483 37.3705 -35.2483 36.8101 -34.9756L21.0121 -27.4335C20.3117 -27.0985 20.2105 -26.1402 20.8331 -25.6727L24.3429 -23.0158C24.9733 -22.5405 25.8215 -22.4626 26.5219 -22.8132L34.2575 -26.7011V3.70101L7.04283 17.3204L7.05841 8.64857C7.05841 7.85384 6.60702 7.12924 5.89883 6.78642L1.91429 4.82298C1.22945 4.48015 0.420105 4.9866 0.420105 5.75016L0.388969 24.5976C0.388969 25.369 0.816983 26.078 1.49404 26.4364L17.868 35.0537C18.5529 35.4121 19.3778 34.9213 19.3856 34.1421L19.4245 29.5763C19.4245 28.7894 18.9887 28.0648 18.2883 27.7064L9.99233 23.5068L37.6973 9.16281L65.4023 23.5068L57.1064 27.7064C56.406 28.0648 55.9624 28.7894 55.9702 29.5763L56.0091 34.1421C56.0091 34.9213 56.8418 35.4121 57.5266 35.0537L73.9006 26.4364C74.5854 26.078 75.0135 25.369 75.0057 24.5976L74.9745 5.75016C74.9745 4.97881 74.1652 4.48015 73.4803 4.82298H73.4881ZM73.4881 -92.7958L69.5036 -90.8324C68.7954 -90.4818 68.344 -89.7572 68.344 -88.9703L68.3596 -80.2984L41.1449 -93.9178V-124.32L48.8805 -120.432C49.5887 -120.074 50.4292 -120.152 51.0595 -120.635L54.5694 -123.299C55.1919 -123.767 55.0908 -124.725 54.3903 -125.06L38.5923 -132.602C38.032 -132.875 37.3705 -132.875 36.8101 -132.602L21.0121 -125.06C20.3117 -124.725 20.2105 -123.767 20.8331 -123.299L24.3429 -120.635C24.9733 -120.159 25.8215 -120.081 26.5219 -120.432L34.2575 -124.32V-93.9178L7.04283 -80.2984L7.05841 -88.9703C7.05841 -89.765 6.6148 -90.4896 5.89883 -90.8324L1.91429 -92.7958C1.22945 -93.1309 0.420105 -92.6322 0.420105 -91.8687L0.388969 -73.0212C0.388969 -72.2499 0.816983 -71.5408 1.49404 -71.1824L17.868 -62.5651C18.5529 -62.2067 19.3778 -62.6976 19.3856 -63.4767L19.4245 -68.0425C19.4245 -68.8294 18.9887 -69.554 18.2883 -69.9124L9.99233 -74.112L37.6973 -88.456L65.4023 -74.112L57.1064 -69.9124C56.406 -69.554 55.9624 -68.8294 55.9702 -68.0425L56.0091 -63.4767C56.0091 -62.6976 56.8418 -62.2067 57.5266 -62.5651L73.9006 -71.1824C74.5854 -71.5408 75.0135 -72.2499 75.0057 -73.0212L74.9745 -91.8687C74.9745 -92.64 74.1652 -93.1387 73.4803 -92.7958H73.4881ZM73.4881 -141.609L69.5036 -139.646C68.7954 -139.295 68.344 -138.57 68.344 -137.784L68.3596 -129.112L41.1449 -142.731V-173.133L48.8805 -169.245C49.5887 -168.887 50.4292 -168.965 51.0595 -169.448L54.5694 -172.105C55.1919 -172.572 55.0908 -173.538 54.3903 -173.866L38.5923 -181.408C38.032 -181.68 37.3705 -181.68 36.8101 -181.408L21.0121 -173.866C20.3117 -173.531 20.2105 -172.572 20.8331 -172.105L24.3429 -169.448C24.9733 -168.973 25.8215 -168.895 26.5219 -169.245L34.2575 -173.133V-142.731L7.04283 -129.112L7.05841 -137.784C7.05841 -138.578 6.6148 -139.303 5.89883 -139.646L1.91429 -141.609C1.22945 -141.952 0.420105 -141.446 0.420105 -140.682L0.388969 -121.835C0.388969 -121.063 0.816983 -120.354 1.49404 -119.996L17.868 -111.378C18.5529 -111.02 19.3778 -111.511 19.3856 -112.29L19.4245 -116.856C19.4245 -117.643 18.9887 -118.367 18.2883 -118.726L9.99233 -122.925L37.6973 -137.277L65.4023 -122.925L57.1064 -118.726C56.406 -118.367 55.9624 -117.643 55.9702 -116.856L56.0091 -112.29C56.0091 -111.511 56.8418 -111.02 57.5266 -111.378L73.9006 -119.996C74.5854 -120.354 75.0135 -121.063 75.0057 -121.835L74.9745 -140.682C74.9745 -141.453 74.1652 -141.952 73.4803 -141.609H73.4881ZM164.129 151.263L160.144 153.226C159.436 153.577 158.984 154.302 158.984 155.089L159 163.76L131.785 150.141V119.739L139.521 123.627C140.229 123.985 141.07 123.907 141.7 123.424L145.21 120.759C145.832 120.292 145.731 119.334 145.031 118.999L129.233 111.456C128.672 111.184 128.011 111.184 127.451 111.456L111.653 118.999C110.952 119.334 110.851 120.292 111.474 120.759L114.983 123.424C115.614 123.899 116.462 123.977 117.162 123.627L124.898 119.739V150.141L97.6833 163.76L97.6989 155.089C97.6989 154.294 97.2475 153.569 96.5393 153.226L92.5548 151.263C91.8699 150.928 91.0606 151.427 91.0606 152.19L91.0294 171.038C91.0294 171.809 91.4575 172.518 92.1345 172.876L108.508 181.494C109.193 181.852 110.018 181.361 110.026 180.582L110.065 176.016C110.065 175.229 109.629 174.505 108.929 174.146L100.633 169.947L128.338 155.603L156.043 169.947L147.747 174.146C147.046 174.505 146.603 175.229 146.611 176.016L146.65 180.582C146.65 181.361 147.482 181.852 148.167 181.494L164.541 172.876C165.226 172.518 165.654 171.809 165.654 171.038L165.623 152.19C165.623 151.419 164.813 150.92 164.129 151.263ZM164.129 53.6363L160.144 55.5997C159.436 55.9503 158.984 56.6749 158.984 57.4619L159 66.1337L131.785 52.5143V22.1122L139.521 26.0001C140.229 26.3585 141.07 26.2806 141.7 25.7975L145.21 23.1328C145.832 22.6653 145.731 21.707 145.031 21.372L129.233 13.8299C128.665 13.5572 128.011 13.5572 127.451 13.8299L111.653 21.372C110.952 21.707 110.851 22.6653 111.474 23.1328L114.983 25.7975C115.614 26.2728 116.462 26.3507 117.162 26.0001L124.898 22.1122V52.5143L97.6833 66.1337L97.6989 57.4619C97.6989 56.6671 97.2475 55.9426 96.5393 55.5997L92.5548 53.6363C91.8699 53.2935 91.0606 53.7999 91.0606 54.5635L91.0294 73.4109C91.0294 74.1823 91.4575 74.8913 92.1345 75.2497L108.508 83.867C109.193 84.2254 110.018 83.7346 110.026 82.9554L110.065 78.3897C110.065 77.6027 109.629 76.8781 108.929 76.5197L100.633 72.3201L128.338 57.9761L156.043 72.3201L147.747 76.5197C147.046 76.8781 146.603 77.6027 146.611 78.3897L146.65 82.9554C146.65 83.7346 147.482 84.2254 148.167 83.867L164.541 75.2497C165.226 74.8913 165.654 74.1823 165.646 73.4109L165.615 54.5635C165.615 53.7999 164.806 53.2935 164.121 53.6363H164.129ZM164.129 4.82298L160.144 6.78642C159.436 7.13703 158.984 7.86164 158.984 8.64857L159 17.3204L131.785 3.70101V-26.7011L139.521 -22.8132C140.229 -22.4548 141.07 -22.5327 141.7 -23.0158L145.21 -25.6727C145.832 -26.1402 145.731 -27.0985 145.031 -27.4335L129.233 -34.9756C128.672 -35.2483 128.011 -35.2483 127.451 -34.9756L111.653 -27.4335C110.952 -27.0985 110.851 -26.1402 111.474 -25.6727L114.983 -23.0158C115.614 -22.5405 116.462 -22.4626 117.162 -22.8132L124.898 -26.7011V3.70101L97.6833 17.3204L97.6989 8.64857C97.6989 7.85384 97.2553 7.12924 96.5393 6.78642L92.5548 4.82298C91.8621 4.48015 91.0606 4.9866 91.0606 5.75016L91.0294 24.5976C91.0294 25.369 91.4575 26.078 92.1345 26.4364L108.508 35.0537C109.193 35.4121 110.018 34.9213 110.026 34.1421L110.065 29.5763C110.065 28.7894 109.629 28.0648 108.929 27.7064L100.633 23.5068L128.338 9.16281L156.043 23.5068L147.747 27.7064C147.046 28.0648 146.603 28.7894 146.611 29.5763L146.65 34.1421C146.65 34.9213 147.482 35.4121 148.167 35.0537L164.541 26.4364C165.226 26.078 165.654 25.369 165.646 24.5976L165.615 5.75016C165.615 4.97881 164.806 4.48015 164.121 4.82298H164.129ZM254.489 -43.9825L250.504 -42.0191C249.796 -41.6685 249.345 -40.9439 249.345 -40.1569L249.36 -31.4851L222.146 -45.1045V-75.5067L229.881 -71.6187C230.589 -71.2603 231.43 -71.3382 232.06 -71.8213L235.57 -74.486C236.193 -74.9535 236.092 -75.9118 235.391 -76.2469L219.593 -83.789C219.025 -84.0617 218.371 -84.0617 217.811 -83.789L202.013 -76.2469C201.312 -75.9118 201.211 -74.9535 201.834 -74.486L205.344 -71.8213C205.974 -71.346 206.822 -71.2681 207.523 -71.6187L215.258 -75.5067V-45.1045L188.044 -31.4851L188.059 -40.1569C188.059 -40.9517 187.608 -41.6763 186.9 -42.0191L182.915 -43.9825C182.23 -44.3254 181.421 -43.8189 181.421 -43.0554L181.39 -24.2079C181.39 -23.4365 181.818 -22.7275 182.503 -22.3691L198.877 -13.7518C199.561 -13.3934 200.386 -13.8842 200.394 -14.6634L200.433 -19.2292C200.433 -20.0161 199.997 -20.7407 199.297 -21.0991L191.001 -25.2987L218.706 -39.6427L246.411 -25.2987L238.115 -21.0991C237.415 -20.7407 236.971 -20.0161 236.979 -19.2292L237.018 -14.6634C237.018 -13.8842 237.85 -13.3934 238.535 -13.7518L254.909 -22.3691C255.594 -22.7275 256.022 -23.4365 256.022 -24.2079L255.991 -43.0554C255.991 -43.8267 255.182 -44.3254 254.497 -43.9825H254.489ZM164.129 -43.9825L160.144 -42.0191C159.436 -41.6685 158.984 -40.9439 158.984 -40.1569L159 -31.4851L131.785 -45.1045V-75.5067L139.521 -71.6187C140.229 -71.2603 141.07 -71.3382 141.7 -71.8213L145.21 -74.486C145.832 -74.9535 145.731 -75.9118 145.031 -76.2469L129.233 -83.789C128.672 -84.0617 128.011 -84.0617 127.451 -83.789L111.653 -76.2469C110.952 -75.9118 110.851 -74.9535 111.474 -74.486L114.983 -71.8213C115.614 -71.346 116.462 -71.2681 117.162 -71.6187L124.898 -75.5067V-45.1045L97.6833 -31.4851L97.6989 -40.1569C97.6989 -40.9517 97.2553 -41.6763 96.5393 -42.0191L92.5548 -43.9825C91.8621 -44.3254 91.0606 -43.8189 91.0606 -43.0554L91.0294 -24.2079C91.0294 -23.4365 91.4575 -22.7275 92.1345 -22.3691L108.508 -13.7518C109.193 -13.3934 110.018 -13.8842 110.026 -14.6634L110.065 -19.2292C110.065 -20.0161 109.629 -20.7407 108.929 -21.0991L100.633 -25.2987L128.338 -39.6427L156.043 -25.2987L147.747 -21.0991C147.046 -20.7407 146.603 -20.0161 146.611 -19.2292L146.65 -14.6634C146.65 -13.8842 147.482 -13.3934 148.167 -13.7518L164.541 -22.3691C165.226 -22.7275 165.654 -23.4365 165.646 -24.2079L165.615 -43.0554C165.615 -43.8267 164.806 -44.3254 164.121 -43.9825H164.129ZM164.121 -141.609L160.136 -139.646C159.428 -139.295 158.977 -138.57 158.977 -137.784L158.992 -129.112L131.778 -142.731V-173.133L139.513 -169.245C140.221 -168.887 141.062 -168.965 141.692 -169.448L145.202 -172.105C145.825 -172.572 145.723 -173.538 145.023 -173.866L129.233 -181.408C128.672 -181.68 128.011 -181.68 127.451 -181.408L111.653 -173.866C110.952 -173.531 110.851 -172.572 111.474 -172.105L114.983 -169.448C115.614 -168.973 116.462 -168.895 117.162 -169.245L124.898 -173.133V-142.731L97.6833 -129.112L97.6989 -137.784C97.6989 -138.578 97.2475 -139.303 96.5393 -139.646L92.5548 -141.609C91.8699 -141.952 91.0606 -141.446 91.0606 -140.682L91.0294 -121.835C91.0294 -121.063 91.4575 -120.354 92.1345 -119.996L108.508 -111.378C109.193 -111.02 110.018 -111.511 110.026 -112.29L110.065 -116.856C110.065 -117.643 109.629 -118.367 108.929 -118.726L100.633 -122.925L128.338 -137.277L156.043 -122.925L147.747 -118.726C147.046 -118.367 146.603 -117.643 146.611 -116.856L146.65 -112.29C146.65 -111.511 147.482 -111.02 148.167 -111.378L164.541 -119.996C165.226 -120.354 165.654 -121.063 165.646 -121.835L165.615 -140.682C165.615 -141.453 164.806 -141.952 164.121 -141.609ZM118.812 126.735L114.828 128.699C114.12 129.05 113.668 129.774 113.668 130.561L113.684 139.233L86.469 125.614V95.2114L94.2046 99.0993C94.9128 99.4577 95.7533 99.3798 96.3837 98.8967L99.8935 96.232C100.516 95.7645 100.415 94.8062 99.7145 94.4712L83.9164 86.9291C83.3561 86.6564 82.6946 86.6564 82.1343 86.9291L66.3362 94.4712C65.6358 94.8062 65.5346 95.7645 66.1572 96.232L69.667 98.8967C70.2974 99.372 71.1457 99.4499 71.8461 99.0993L79.5817 95.2114V125.614L52.367 139.233L52.3825 130.561C52.3825 129.766 51.9312 129.05 51.223 128.699L47.2384 126.735C46.5536 126.393 45.7442 126.899 45.7442 127.663L45.7131 146.51C45.7131 147.281 46.1411 147.99 46.8182 148.349L63.1922 156.966C63.877 157.325 64.7019 156.834 64.7097 156.055L64.7486 151.489C64.7486 150.702 64.3128 149.977 63.6124 149.619L55.3164 145.419L83.0214 131.075L110.726 145.419L102.43 149.619C101.73 149.977 101.287 150.702 101.294 151.489L101.333 156.055C101.333 156.834 102.166 157.325 102.851 156.966L119.225 148.349C119.91 147.99 120.338 147.281 120.338 146.51L120.306 127.663C120.306 126.891 119.497 126.393 118.812 126.735ZM118.812 77.9222L114.828 79.8856C114.12 80.2362 113.668 80.9608 113.668 81.7555L113.684 90.4274L86.469 76.808V46.4058L94.2046 50.2938C94.9128 50.6522 95.7533 50.5743 96.3837 50.0912L99.8935 47.4265C100.516 46.959 100.415 46.0007 99.7145 45.6657L83.9164 38.1235C83.3483 37.8508 82.6946 37.8508 82.1343 38.1235L66.3362 45.6657C65.6358 46.0007 65.5346 46.959 66.1572 47.4265L69.667 50.0912C70.2974 50.5665 71.1457 50.6444 71.8461 50.2938L79.5817 46.4058V76.808L52.367 90.4274L52.3825 81.7555C52.3825 80.9608 51.9312 80.2362 51.223 79.8856L47.2384 77.9222C46.5536 77.5871 45.7442 78.0858 45.7442 78.8494L45.7131 97.6968C45.7131 98.4682 46.1411 99.1772 46.8182 99.5356L63.1922 108.153C63.877 108.511 64.7019 108.02 64.7097 107.241L64.7486 102.676C64.7486 101.889 64.3128 101.164 63.6124 100.806L55.3164 96.606L83.0214 82.2542L110.726 96.606L102.43 100.806C101.73 101.164 101.287 101.889 101.294 102.676L101.333 107.241C101.333 108.02 102.166 108.511 102.851 108.153L119.225 99.5356C119.91 99.1772 120.338 98.4682 120.33 97.6968L120.299 78.8494C120.299 78.078 119.489 77.5794 118.804 77.9222H118.812ZM118.812 29.1089L114.828 31.0723C114.12 31.4229 113.668 32.1475 113.668 32.9344L113.684 41.6063L86.469 27.9869V-2.41526L94.2046 1.47266C94.9128 1.83106 95.7533 1.75315 96.3837 1.27009L99.8935 -1.3868C100.516 -1.85428 100.415 -2.82041 99.7145 -3.14765L83.9164 -10.6898C83.3483 -10.9625 82.6946 -10.9625 82.1343 -10.6898L66.3362 -3.14765C65.6358 -2.81262 65.5346 -1.85428 66.1572 -1.3868L69.667 1.27009C70.2974 1.74536 71.1457 1.82327 71.8461 1.47266L79.5817 -2.41526V27.9869L52.367 41.6063L52.3825 32.9344C52.3825 32.1397 51.9312 31.4229 51.223 31.0723L47.2384 29.1089C46.5536 28.7738 45.7442 29.2725 45.7442 30.0361L45.7131 48.8835C45.7131 49.6549 46.1411 50.3639 46.8182 50.7223L63.1922 59.3396C63.877 59.698 64.7019 59.2071 64.7097 58.428L64.7486 53.8622C64.7486 53.0753 64.3128 52.3507 63.6124 51.9923L55.3164 47.7927L83.0214 33.4487L110.726 47.7927L102.43 51.9923C101.73 52.3507 101.287 53.0753 101.294 53.8622L101.333 58.428C101.333 59.2071 102.166 59.698 102.851 59.3396L119.225 50.7223C119.91 50.3639 120.338 49.6549 120.33 48.8835L120.299 30.0361C120.299 29.2647 119.489 28.766 118.804 29.1089H118.812ZM118.812 -19.7044L114.828 -17.741C114.12 -17.3904 113.668 -16.6658 113.668 -15.8788L113.684 -7.20699L86.469 -20.8264V-51.2286L94.2046 -47.3406C94.9128 -46.9822 95.7533 -47.0601 96.3837 -47.5432L99.8935 -50.2001C100.516 -50.6676 100.415 -51.6259 99.7145 -51.961L83.9164 -59.5031C83.3561 -59.7758 82.6946 -59.7758 82.1343 -59.5031L66.3362 -51.961C65.6358 -51.6259 65.5346 -50.6676 66.1572 -50.2001L69.667 -47.5432C70.2974 -47.0679 71.1457 -46.99 71.8461 -47.3406L79.5817 -51.2286V-20.8264L52.367 -7.20699L52.3825 -15.8788C52.3825 -16.6736 51.9389 -17.3982 51.223 -17.741L47.2384 -19.7044C46.5458 -20.0473 45.7442 -19.5408 45.7442 -18.7773L45.7131 0.0701985C45.7131 0.84155 46.1411 1.55057 46.826 1.90898L63.1999 10.5263C63.8848 10.8847 64.7097 10.3938 64.7175 9.6147L64.7564 5.04893C64.7564 4.262 64.3206 3.53739 63.6202 3.17898L55.3242 -1.0206L83.0292 -15.3646L110.734 -1.0206L102.438 3.17898C101.738 3.53739 101.294 4.262 101.302 5.04893L101.341 9.6147C101.341 10.3938 102.174 10.8847 102.859 10.5263L119.232 1.90898C119.917 1.55057 120.345 0.84155 120.338 0.0701985L120.306 -18.7773C120.306 -19.5408 119.497 -20.0473 118.812 -19.7044ZM118.812 -68.5178L114.828 -66.5543C114.12 -66.2037 113.668 -65.4791 113.668 -64.6922L113.684 -56.0203L86.469 -69.6397V-100.042L94.2046 -96.154C94.9128 -95.7955 95.7533 -95.8735 96.3837 -96.3565L99.8935 -99.0134C100.516 -99.4809 100.415 -100.439 99.7145 -100.774L83.9164 -108.316C83.3561 -108.589 82.6946 -108.589 82.1343 -108.316L66.3362 -100.774C65.6358 -100.439 65.5346 -99.4809 66.1572 -99.0134L69.667 -96.3565C70.2974 -95.8813 71.1457 -95.8033 71.8461 -96.154L79.5817 -100.042V-69.6397L52.367 -56.0203L52.3825 -64.6922C52.3825 -65.4869 51.9389 -66.2115 51.223 -66.5543L47.2384 -68.5178C46.5458 -68.8606 45.7442 -68.3541 45.7442 -67.5906L45.7131 -48.7431C45.7131 -47.9718 46.1411 -47.2627 46.826 -46.9043L63.1999 -38.287C63.8848 -37.9286 64.7097 -38.4195 64.7175 -39.1986L64.7564 -43.7644C64.7564 -44.5513 64.3206 -45.2759 63.6202 -45.6343L55.3242 -49.8339L83.0292 -64.1779L110.734 -49.8339L102.438 -45.6343C101.738 -45.2759 101.294 -44.5513 101.302 -43.7644L101.341 -39.1986C101.341 -38.4195 102.174 -37.9286 102.859 -38.287L119.232 -46.9043C119.917 -47.2627 120.345 -47.9718 120.338 -48.7431L120.306 -67.5906C120.306 -68.3619 119.497 -68.8606 118.812 -68.5178ZM118.812 -117.331L114.828 -115.368C114.12 -115.017 113.668 -114.292 113.668 -113.498L113.684 -104.826L86.469 -118.445V-148.847L94.2046 -144.959C94.9128 -144.601 95.7533 -144.679 96.3837 -145.162L99.8935 -147.819C100.516 -148.286 100.415 -149.245 99.7145 -149.58L83.9164 -157.122C83.3483 -157.395 82.6946 -157.395 82.1343 -157.122L66.3362 -149.58C65.6358 -149.245 65.5346 -148.286 66.1572 -147.819L69.667 -145.162C70.2974 -144.687 71.1457 -144.609 71.8461 -144.959L79.5817 -148.847V-118.445L52.367 -104.826L52.3825 -113.498C52.3825 -114.292 51.9312 -115.017 51.223 -115.368L47.2384 -117.331C46.5536 -117.674 45.7442 -117.167 45.7442 -116.404L45.7131 -97.5564C45.7131 -96.7851 46.1411 -96.076 46.8182 -95.7176L63.1922 -87.1003C63.877 -86.7419 64.7019 -87.2328 64.7097 -88.0119L64.7486 -92.5777C64.7486 -93.3646 64.3128 -94.0892 63.6124 -94.4476L55.3164 -98.6472L83.0214 -112.991L110.726 -98.6472L102.43 -94.4476C101.73 -94.0892 101.287 -93.3646 101.294 -92.5777L101.333 -88.0119C101.333 -87.2328 102.166 -86.7419 102.851 -87.1003L119.225 -95.7176C119.91 -96.076 120.338 -96.7851 120.33 -97.5564L120.299 -116.404C120.299 -117.175 119.489 -117.674 118.804 -117.331H118.812ZM300.085 -117.331L296.101 -115.368C295.393 -115.017 294.941 -114.292 294.941 -113.498L294.957 -104.826L267.742 -118.445V-148.847L275.478 -144.959C276.186 -144.601 277.026 -144.679 277.657 -145.162L281.167 -147.819C281.789 -148.286 281.688 -149.245 280.988 -149.58L265.19 -157.122C264.621 -157.395 263.968 -157.395 263.407 -157.122L247.609 -149.58C246.909 -149.245 246.808 -148.286 247.43 -147.819L250.94 -145.162C251.571 -144.687 252.419 -144.609 253.119 -144.959L260.855 -148.847V-118.445L233.64 -104.826L233.656 -113.498C233.656 -114.292 233.204 -115.017 232.496 -115.368L228.512 -117.331C227.827 -117.674 227.017 -117.167 227.017 -116.404L226.986 -97.5564C226.986 -96.7851 227.414 -96.076 228.091 -95.7176L244.465 -87.1003C245.15 -86.7419 245.975 -87.2328 245.983 -88.0119L246.022 -92.5777C246.022 -93.3646 245.586 -94.0892 244.886 -94.4476L236.59 -98.6472L264.295 -112.991L292 -98.6472L283.704 -94.4476C283.003 -94.0892 282.56 -93.3646 282.567 -92.5777L282.606 -88.0119C282.606 -87.2328 283.439 -86.7419 284.124 -87.1003L300.506 -95.7098C301.19 -96.0682 301.619 -96.7773 301.611 -97.5486L301.58 -116.396C301.58 -117.167 300.77 -117.666 300.085 -117.323V-117.331ZM254.761 -92.7958L250.777 -90.8324C250.069 -90.4818 249.617 -89.7572 249.617 -88.9703L249.633 -80.2984L222.418 -93.9178V-124.32L230.154 -120.432C230.862 -120.074 231.702 -120.152 232.333 -120.635L235.842 -123.299C236.465 -123.767 236.364 -124.725 235.664 -125.06L219.865 -132.602C219.297 -132.875 218.644 -132.875 218.083 -132.602L202.285 -125.06C201.585 -124.725 201.484 -123.767 202.106 -123.299L205.616 -120.635C206.246 -120.159 207.095 -120.081 207.795 -120.432L215.531 -124.32V-93.9178L188.316 -80.2984L188.332 -88.9703C188.332 -89.765 187.88 -90.4896 187.172 -90.8324L183.187 -92.7958C182.503 -93.1309 181.693 -92.6322 181.693 -91.8687L181.662 -73.0212C181.662 -72.2499 182.09 -71.5408 182.767 -71.1824L199.141 -62.5651C199.826 -62.2067 200.651 -62.6976 200.659 -63.4767L200.698 -68.0425C200.698 -68.8294 200.262 -69.554 199.561 -69.9124L191.265 -74.112L218.97 -88.456L246.675 -74.112L238.38 -69.9124C237.679 -69.554 237.236 -68.8294 237.243 -68.0425L237.282 -63.4767C237.282 -62.6976 238.115 -62.2067 238.8 -62.5651L255.174 -71.1824C255.859 -71.5408 256.287 -72.2499 256.279 -73.0212L256.248 -91.8687C256.248 -92.64 255.438 -93.1387 254.753 -92.7958H254.761ZM209.445 77.9222L205.46 79.8856C204.752 80.2362 204.301 80.9608 204.301 81.7555L204.316 90.4274L177.102 76.808V46.4058L184.837 50.2938C185.545 50.6522 186.386 50.5743 187.016 50.0912L190.526 47.4265C191.149 46.959 191.048 46.0007 190.347 45.6657L174.549 38.1235C173.989 37.8508 173.327 37.8508 172.767 38.1235L156.969 45.6657C156.268 46.0007 156.167 46.959 156.79 47.4265L160.3 50.0912C160.93 50.5665 161.778 50.6444 162.479 50.2938L170.214 46.4058V76.808L143 90.4274L143.015 81.7555C143.015 80.9608 142.564 80.2362 141.856 79.8856L137.871 77.9222C137.186 77.5871 136.377 78.0858 136.377 78.8494L136.346 97.6968C136.346 98.4682 136.774 99.1772 137.459 99.5356L153.833 108.153C154.517 108.511 155.342 108.02 155.35 107.241L155.389 102.676C155.389 101.889 154.953 101.164 154.253 100.806L145.957 96.606L173.662 82.2542L201.367 96.606L193.071 100.806C192.371 101.164 191.927 101.889 191.935 102.676L191.974 107.241C191.974 108.02 192.806 108.511 193.491 108.153L209.865 99.5356C210.55 99.1772 210.978 98.4682 210.97 97.6968L210.939 78.8494C210.939 78.078 210.13 77.5794 209.445 77.9222ZM209.445 -19.7044L205.46 -17.741C204.752 -17.3904 204.301 -16.6658 204.301 -15.8788L204.316 -7.20699L177.102 -20.8264V-51.2286L184.837 -47.3406C185.545 -46.9822 186.386 -47.0601 187.016 -47.5432L190.526 -50.2001C191.149 -50.6676 191.048 -51.6259 190.347 -51.961L174.549 -59.5031C173.989 -59.7758 173.327 -59.7758 172.767 -59.5031L156.969 -51.961C156.268 -51.6259 156.167 -50.6676 156.79 -50.2001L160.3 -47.5432C160.93 -47.0679 161.778 -46.99 162.479 -47.3406L170.214 -51.2286V-20.8264L143 -7.20699L143.015 -15.8788C143.015 -16.6736 142.572 -17.3982 141.856 -17.741L137.871 -19.7044C137.178 -20.0473 136.377 -19.5408 136.377 -18.7773L136.346 0.0701985C136.346 0.84155 136.774 1.55057 137.451 1.90898L153.825 10.5263C154.51 10.8847 155.335 10.3938 155.342 9.6147L155.381 5.04893C155.381 4.262 154.945 3.53739 154.245 3.17898L145.949 -1.0206L173.654 -15.3646L201.359 -1.0206L193.063 3.17898C192.363 3.53739 191.919 4.262 191.927 5.04893L191.966 9.6147C191.966 10.3938 192.799 10.8847 193.483 10.5263L209.865 1.90898C210.55 1.55057 210.978 0.84155 210.97 0.0701985L210.939 -18.7773C210.939 -19.5408 210.13 -20.0473 209.445 -19.7044ZM209.445 -117.331L205.46 -115.368C204.752 -115.017 204.301 -114.292 204.301 -113.498L204.316 -104.826L177.102 -118.445V-148.847L184.837 -144.959C185.545 -144.601 186.386 -144.679 187.016 -145.162L190.526 -147.819C191.149 -148.286 191.048 -149.245 190.347 -149.58L174.549 -157.122C173.981 -157.395 173.327 -157.395 172.767 -157.122L156.969 -149.58C156.268 -149.245 156.167 -148.286 156.79 -147.819L160.3 -145.162C160.93 -144.687 161.778 -144.609 162.479 -144.959L170.214 -148.847V-118.445L143 -104.826L143.015 -113.498C143.015 -114.292 142.564 -115.017 141.856 -115.368L137.871 -117.331C137.186 -117.674 136.377 -117.167 136.377 -116.404L136.346 -97.5564C136.346 -96.7851 136.774 -96.076 137.451 -95.7176L153.825 -87.1003C154.51 -86.7419 155.335 -87.2328 155.342 -88.0119L155.381 -92.5777C155.381 -93.3646 154.945 -94.0892 154.245 -94.4476L145.949 -98.6472L173.654 -112.991L201.359 -98.6472L193.063 -94.4476C192.363 -94.0892 191.919 -93.3646 191.927 -92.5777L191.966 -88.0119C191.966 -87.2328 192.799 -86.7419 193.483 -87.1003L209.857 -95.7176C210.542 -96.076 210.97 -96.7851 210.962 -97.5564L210.931 -116.404C210.931 -117.175 210.122 -117.674 209.437 -117.331H209.445ZM300.085 -19.7044L296.101 -17.741C295.393 -17.3904 294.941 -16.6658 294.941 -15.8788L294.957 -7.20699L267.742 -20.8264V-51.2286L275.478 -47.3406C276.186 -46.9822 277.026 -47.0601 277.657 -47.5432L281.167 -50.2001C281.789 -50.6676 281.688 -51.6259 280.988 -51.961L265.19 -59.5031C264.621 -59.7758 263.968 -59.7758 263.407 -59.5031L247.609 -51.961C246.909 -51.6259 246.808 -50.6676 247.43 -50.2001L250.94 -47.5432C251.571 -47.0679 252.419 -46.99 253.119 -47.3406L260.855 -51.2286V-20.8264L233.64 -7.20699L233.656 -15.8788C233.656 -16.6736 233.204 -17.3982 232.496 -17.741L228.512 -19.7044C227.827 -20.0473 227.017 -19.5408 227.017 -18.7773L226.986 0.0701985C226.986 0.84155 227.414 1.55057 228.091 1.90898L244.465 10.5263C245.15 10.8847 245.975 10.3938 245.983 9.6147L246.022 5.04893C246.022 4.262 245.586 3.53739 244.886 3.17898L236.59 -1.0206L264.295 -15.3646L292 -1.0206L283.704 3.17898C283.003 3.53739 282.56 4.262 282.567 5.04893L282.606 9.6147C282.606 10.3938 283.439 10.8847 284.124 10.5263L300.498 1.90898C301.183 1.55057 301.611 0.84155 301.603 0.0701985L301.572 -18.7773C301.572 -19.5408 300.762 -20.0473 300.078 -19.7044H300.085Z" stroke="#E5E7EB" stroke-miterlimit="10"/>
</svg>
