<svg width="28" height="37" viewBox="0 0 28 37" fill="none" xmlns="http://www.w3.org/2000/svg">
<g clip-path="url(#clip0_59_2561)">
<path d="M27.4869 17.575C27.4115 22.3134 25.7875 26.897 22.8629 30.626C21.6005 32.2278 20.0849 33.6128 18.3759 34.726C13.5239 37.846 7.89793 36.89 4.16293 32.494C1.48975 29.2296 0.0255893 25.1423 0.0179213 20.923C-0.23437 15.8813 1.15628 10.8938 3.98092 6.71001C5.51521 4.33781 7.65578 2.41889 10.1809 1.152C12.1928 0.125721 14.4799 -0.231115 16.7088 0.133504C18.9377 0.498123 20.9919 1.56514 22.5719 3.17901C25.7099 6.27701 27.5099 11.129 27.4869 17.575ZM22.2709 14.751C17.6709 18.008 13.2969 21.083 8.92393 24.181L9.06092 24.523C9.36271 24.6252 9.67685 24.6864 9.99493 24.705C14.0429 24.3747 17.988 23.2607 21.6109 21.425C21.779 21.3223 21.9217 21.1828 22.0282 21.017C22.1347 20.8513 22.2023 20.6636 22.2259 20.468C22.2939 18.645 22.2709 16.846 22.2709 14.75V14.751ZM18.5579 10.651C18.4899 10.514 18.4439 10.378 18.3759 10.241C18.0277 10.1914 17.6737 10.1992 17.3279 10.264C13.5279 11.38 9.71993 12.542 5.93893 13.703C5.81676 13.7642 5.709 13.8507 5.6228 13.9567C5.53659 14.0628 5.47392 14.1859 5.43893 14.318C5.39293 16.3 5.41593 18.304 5.41593 20.286C5.5338 20.3343 5.65558 20.3724 5.77993 20.4C9.90293 16.959 14.5759 14.25 18.5579 10.651ZM8.28593 30.626C8.49399 31.3723 8.86274 32.064 9.36634 32.6527C9.86994 33.2415 10.4962 33.7129 11.2012 34.0341C11.9062 34.3553 12.673 34.5184 13.4477 34.512C14.2224 34.5055 14.9863 34.3298 15.6859 33.997C18.1229 32.721 19.3299 30.512 20.1729 27.71C16.4841 29.5737 12.4185 30.571 8.28593 30.626ZM8.39993 6.596C11.8389 5.844 15.2999 5.07001 18.7639 4.29601C18.4126 3.44919 17.7971 2.73857 17.0091 2.27004C16.221 1.80151 15.3027 1.60016 14.3909 1.696C13.0233 1.84 11.7276 2.38049 10.6631 3.25103C9.59852 4.12156 8.81255 5.2842 8.39993 6.596Z" fill="#717271"/>
</g>
<defs>
<clipPath id="clip0_59_2561">
<rect width="27.487" height="36.555" fill="white"/>
</clipPath>
</defs>
</svg>
